# AST/ASF file generated using VICON BodyLanguage
# -----------------------------------------------
:version 1.10
:name VICON
:units
  mass 1.0
  length 0.45
  angle deg
:documentation
   .ast/.asf automatically generated from VICON data using
   VICON BodyBuilder and BodyLanguage model FoxedUp or BRILLIANT.MOD
:root
   order TX TY TZ RX RY RZ
   axis XYZ
   position 0 0 0  
   orientation 0 0 0 
:bonedata
  begin
     id 1 
     name lhipjoint
     direction 0.677091 -0.635792 0.370561 
     length 2.74323 
     axis 0 0 0  XYZ
  end
  begin
     id 2 
     name lfemur
     direction 0.34202 -0.939693 0  
     length 7.44995  
     axis 0 0 20  XYZ
    dof rx ry rz
    limits (-160.0 20.0)
           (-70.0 70.0)
           (-60.0 70.0)
  end
  begin
     id 3 
     name ltibia
     direction 0.34202 -0.939693 0   
     length 7.34467   
     axis 0 0 20   XYZ
    dof rx
    limits (-10.0 170.0)
  end
  begin
     id 4 
     name lfoot
     direction 0.101953 -0.280114 0.954537   
     length 1.72105   
     axis -90 7.62852e-016 20   XYZ
    dof rx rz
    limits (-45.0 90.0)
           (-70.0 20.0)
  end
  begin
     id 5 
     name ltoes
     direction 1.53537e-011 -4.21915e-011 1   
     length 0.865872   
     axis -90 7.62852e-016 20   XYZ
    dof rx
    limits (-90.0 20.0)
  end
  begin
     id 6 
     name rhipjoint
     direction -0.695735 -0.620586 0.361699   
     length 2.81045  
     axis 0 0 0  XYZ 
  end
  begin
     id 7 
     name rfemur
     direction -0.34202 -0.939693 0   
     length 7.29387   
     axis 0 0 -20   XYZ
    dof rx ry rz
    limits (-160.0 20.0)
           (-70.0 70.0)
           (-70.0 60.0)
  end
  begin
     id 8 
     name rtibia
     direction -0.34202 -0.939693 0   
     length 7.44935   
     axis 0 0 -20   XYZ
    dof rx
    limits (-10.0 170.0)
 end
 begin
     id 9 
     name rfoot
     direction -0.104163 -0.286184 0.952496   
     length 1.77731  
     axis -90 -7.62852e-016 -20   XYZ
    dof rx rz
    limits (-45.0 90.0)
           (-20.0 70.0)
  end
  begin
     id 10 
     name rtoes
     direction -1.5355e-011 -4.21888e-011 1   
     length 0.892424   
     axis -90 -7.62852e-016 -20   XYZ
    dof rx
    limits (-90.0 20.0)
  end
  begin
     id 11 
     name lowerback
     direction 0.0100202 0.997226 -0.0737589   
     length 2.16892   
     axis 0 0 0   XYZ
    dof rx ry rz
    limits (-20.0 45.0)
           (-30.0 30.0)
           (-30.0 30.0)
  end
  begin
     id 12 
     name upperback
     direction 0.00432398 0.999988 -0.00215019   
     length 2.17326   
     axis 0 0 0   XYZ
    dof rx ry rz
    limits (-20.0 45.0)
           (-30.0 30.0)
           (-30.0 30.0)
  end
  begin
     id 13 
     name thorax
     direction -0.00195047 0.999485 0.0320434   
     length 2.18139   
     axis 0 0 0   XYZ
    dof rx ry rz
    limits (-20.0 45.0)
           (-30.0 30.0)
           (-30.0 30.0)
  end
  begin
     id 14 
     name lowerneck
     direction 0.00782762 0.986241 0.165128   
     length 1.88415   
     axis 0 0 0   XYZ
    dof rx ry rz
    limits (-20.0 45.0)
           (-30.0 30.0)
           (-30.0 30.0)
  end
  begin
     id 15 
     name upperneck
     direction 0.00988667 0.981098 -0.193258   
     length 1.9242   
     axis 0 0 0   XYZ
    dof rx ry rz
    limits (-20.0 45.0)
           (-30.0 30.0)
           (-30.0 30.0)
  end
  begin
     id 16
     name head
     direction 0.00252199 0.996513 -0.0833958  
     length 1.93887  
     axis 0 0 0   XYZ
    dof rx ry rz
    limits (-20.0 45.0)
           (-30.0 30.0)
           (-30.0 30.0)
  end
  begin
     id 17 
     name lclavicle
     direction 0.929492 0.368193 -0.0218667  
     length 3.5955  
     axis 0 0 0   XYZ
    dof ry rz
    limits (-20.0 10.0)
           (0.0 20.0)
  end
  begin
     id 18 
     name lhumerus
     direction 1 -4.48972e-011 1.41911e-027   
     length 5.2795   
     axis 180 -30 -90   XYZ
    dof rx ry rz
    limits (-60.0 90.0)
           (-90.0 90.0)
           (-90.0 90.0)
  end
  begin
     id 19
     name lradius
     direction 1 -4.48963e-011 7.05772e-027   
     length 3.53504   
     axis 180 -30 -90   XYZ
    dof rx
    limits (-10.0 170.0)
  end
  begin
     id 20
     name lwrist
     direction 1 -4.48957e-011 9.54866e-027   
     length 1.76752   
     axis -7.69462e-015 90 90   XYZ
    dof ry
    limits (-180.0 0.0)
 end
  begin
     id 21 
     name lhand
     direction 1 -4.48979e-011 1.90973e-026   
     length 0.667948   
     axis -1.21857e-014 90 90   XYZ
    dof rx rz
    limits (-90.0 90.0)
           (-45.0 45.0)
  end
  begin
     id 22 
     name lfingers
     direction 1 -4.48987e-011 3.81946e-026   
     length 0.538517   
     axis -2.43714e-014 90 90   XYZ
    dof rx
    limits (0.0 90.0)
  end
  begin
     id 23
     name lthumb
     direction 0.707107 -6.34962e-011 0.707107   
     length 0.773206   
     axis -90 45 2.85299e-015   XYZ
    dof rx rz
    limits (-45.0 45.0)
           (-45.0 45.0)
  end
  begin
     id 24 
     name rclavicle
     direction -0.898763 0.414256 -0.143584   
     length 3.5176  
     axis 0 0 0   XYZ 
    dof ry rz
    limits (-10.0 20.0)
           (-20.0 0.0)
  end
  begin
     id 25 
     name rhumerus
     direction -1 -4.48971e-011 1.129e-027  
     length 5.25035   
     axis 180 30 90   XYZ
    dof rx ry rz
    limits (-90.0 60.0)
           (-90.0 90.0)
           (-90.0 90.0)
  end
  begin
     id 26 
     name rradius
     direction -1 -4.48955e-011 6.34664e-027   
     length 3.58884   
     axis 180 30 90   XYZ
    dof rx
    limits (-10.0 170.0)
  end
  begin
     id 27 
     name rwrist
     direction -1 -4.48966e-011 9.54866e-027   
     length 1.79442   
     axis -7.69462e-015 -90 -90   XYZ
    dof ry
    limits (-180.0 0.0)
  end
  begin
     id 28
     name rhand
     direction -1 -4.48973e-011 1.90973e-026   
     length 0.779235   
     axis -1.21857e-014 -90 -90   XYZ
    dof rx rz
    limits (-90.0 90.0)
           (-45.0 45.0)
  end
  begin
     id 29
     name rfingers
     direction -1 -4.48984e-011 3.81946e-026   
     length 0.62824   
     axis -2.43714e-014 -90 -90   XYZ
    dof rx
    limits (0.0 90.0)
  end
  begin
     id 30
     name rthumb
     direction -0.707107 -6.34968e-011 0.707107   
     length 0.90203   
     axis -90 -45 -2.85299e-015   XYZ
    dof rx rz
    limits (-45.0 45.0)
           (-45.0 45.0)
  end
:hierarchy
  begin
    root lhipjoint rhipjoint lowerback
    lhipjoint lfemur
    lfemur ltibia
    ltibia lfoot
    lfoot ltoes
    rhipjoint rfemur
    rfemur rtibia
    rtibia rfoot
    rfoot rtoes
    lowerback upperback
    upperback thorax
    thorax lowerneck lclavicle rclavicle
    lowerneck upperneck
    upperneck head
    lclavicle lhumerus
    lhumerus lradius
    lradius lwrist
    lwrist lhand lthumb
    lhand lfingers
    rclavicle rhumerus
    rhumerus rradius
    rradius rwrist
    rwrist rhand rthumb
    rhand rfingers
  end

#!OML:ASF I:\Random Stuff\random\construction\7_22_03\Session 2\subj1.ASF
:FULLY-SPECIFIED
:DEGREES
130
root -23.4348 17.7189 -0.617149 -143.519 73.2823 -152.139
lowerback 9.01555 0.197704 -0.350777
upperback 1.49842 0.420745 2.83658
thorax -3.52419 0.261292 3.09129
lowerneck -22.5444 -0.216245 0.612311
upperneck 38.2581 -0.55724 3.37961
head 18.1171 0.828692 1.49775
rclavicle -9.93923e-015 -2.50469e-014
rhumerus -51.6254 -39.4142 -26.7315
rradius 23.5599
rwrist 11.7252
rhand -20.6738 12.2323
rfingers 7.12502
rthumb 5.68928 -17.6714
lclavicle -9.93923e-015 -2.50469e-014
lhumerus -53.579 43.3542 27.3388
lradius 22.4599
lwrist 15.8195
lhand -20.6324 55.3763
lfingers 7.12502
lthumb 5.7293 85.2789
rfemur -19.9123 -2.62305 23.0897
rtibia 24.5621
rfoot -9.96653 -10.3752
rtoes -14.6036
lfemur -18.598 -4.93327 -15.7489
ltibia 26.8201
lfoot -20.2252 11.2175
ltoes -12.9489
131
root -23.4576 17.7225 -0.620039 -142.582 73.3132 -151.154
lowerback 8.73673 0.315808 -0.210953
upperback 1.45874 0.584423 2.80574
thorax -3.41786 0.339176 2.96041
lowerneck -22.6335 -0.274459 0.606336
upperneck 38.2411 -0.662134 3.40513
head 18.134 0.790041 1.4887
rclavicle -6.95746e-015 1.98785e-014
rhumerus -51.967 -38.3384 -26.7192
rradius 27.5252
rwrist 7.05006
rhand -21.4126 12.9523
rfingers 7.12502
rthumb 4.97594 -16.9693
lclavicle -6.95746e-015 1.98785e-014
lhumerus -55.3238 44.4833 23.3052
lradius 22.9795
lwrist 15.8354
lhand -19.0011 54.8487
lfingers 7.12502
lthumb 7.3041 84.7026
rfemur -18.5364 -2.97441 23.1294
rtibia 24.6265
rfoot -10.1562 -10.5297
rtoes -15.2912
lfemur -18.7236 -4.9831 -15.5097
ltibia 26.9999
lfoot -20.1481 11.4846
ltoes -12.7444
132
root -23.4757 17.7265 -0.621983 -141.597 73.3103 -150.174
lowerback 8.49444 0.37566 -0.113669
upperback 1.33408 0.670042 2.83422
thorax -3.4162 0.380175 2.92572
lowerneck -22.6277 -0.225758 0.70191
upperneck 38.2402 -0.552182 3.22127
head 18.1268 0.820487 1.40917
rclavicle 3.76697e-014 -1.27222e-014
rhumerus -52.0417 -36.9649 -27.0445
rradius 31.9122
rwrist 2.40888
rhand -22.5381 13.7653
rfingers 7.12502
rthumb 3.88917 -16.1789
lclavicle 3.76697e-014 -1.27222e-014
lhumerus -53.4373 41.0938 25.2431
lradius 24.4219
lwrist 21.9489
lhand -17.8638 54.7074
lfingers 7.12502
lthumb 8.40182 84.5203
rfemur -17.1151 -3.22034 23.1933
rtibia 24.2776
rfoot -9.97717 -11.0084
rtoes -18.0291
lfemur -18.9006 -4.99047 -15.2416
ltibia 27.1826
lfoot -20.1415 11.6684
ltoes -12.0487
133
root -23.4898 17.7309 -0.619332 -140.453 73.2514 -149.019
lowerback 8.2458 0.448567 0.0573862
upperback 1.21145 0.780333 2.87129
thorax -3.40895 0.432866 2.85595
lowerneck -22.7142 -0.294227 0.499206
upperneck 38.2811 -0.682363 3.49218
head 18.1798 0.781961 1.54754
rclavicle 1.04362e-014 -8.34896e-015
rhumerus -51.9107 -35.7331 -27.3163
rradius 36.1417
rwrist -0.959577
rhand -23.9772 14.4743
rfingers 7.12502
rthumb 2.49941 -15.4908
lclavicle 1.04362e-014 -8.34896e-015
lhumerus -52.84 39.5923 25.1202
lradius 26.0752
lwrist 25.6157
lhand -16.8038 54.3394
lfingers 7.12502
lthumb 9.42465 84.1086
rfemur -15.5914 -3.29289 23.3768
rtibia 23.61
rfoot -9.81554 -12.0214
rtoes -20.7343
lfemur -19.0754 -4.46081 -14.9186
ltibia 27.3437
lfoot -20.1387 11.3758
ltoes -12.2398
134
root -23.5013 17.735 -0.614297 -139.7 73.2079 -148.295
lowerback 7.97003 0.536317 0.141133
upperback 1.08312 0.899697 2.88027
thorax -3.393 0.490479 2.80602
lowerneck -22.7644 -0.456827 0.166333
upperneck 38.2179 -0.967668 3.90745
head 18.1725 0.681366 1.73865
rclavicle 3.37934e-014 -1.70955e-014
rhumerus -51.5023 -34.6245 -27.4965
rradius 39.9696
rwrist -2.59909
rhand -25.4614 14.8947
rfingers 7.12502
rthumb 1.06591 -15.0824
lclavicle 3.37934e-014 -1.70955e-014
lhumerus -52.0553 38.0792 25.2877
lradius 27.9906
lwrist 28.8347
lhand -16.2444 54.0079
lfingers 7.12502
lthumb 9.9644 83.752
rfemur -14.0191 -3.18879 23.4469
rtibia 22.6939
rfoot -9.77077 -13.348
rtoes -21.5948
lfemur -19.2752 -3.64706 -14.7487
ltibia 27.4893
lfoot -20.0845 10.7832
ltoes -13.6423
135
root -23.5086 17.7391 -0.608689 -139.291 73.2048 -147.947
lowerback 7.70723 0.626944 0.101389
upperback 0.896062 1.01132 2.87043
thorax -3.44602 0.545654 2.8077
lowerneck -22.6388 -0.586378 0.13848
upperneck 38.1128 -1.15205 3.89588
head 18.0862 0.601344 1.69273
rclavicle 1.13307e-014 8.34896e-015
rhumerus -51.0021 -33.503 -27.589
rradius 43.4946
rwrist -2.78285
rhand -26.8842 15.2948
rfingers 7.12502
rthumb -0.30825 -14.6847
lclavicle 1.13307e-014 8.34896e-015
lhumerus -51.3817 36.719 25.3594
lradius 30.0514
lwrist 30.9179
lhand -15.9333 53.4977
lfingers 7.12502
lthumb 10.2645 83.2272
rfemur -12.4448 -3.01518 23.4198
rtibia 21.5929
rfoot -9.54933 -14.6428
rtoes -21.8225
lfemur -19.4641 -3.20011 -14.6794
ltibia 27.6222
lfoot -19.9078 10.5317
ltoes -14.7333
136
root -23.5107 17.7415 -0.600498 -138.494 73.2423 -147.149
lowerback 7.39925 0.714241 0.114603
upperback 0.762408 1.12339 2.87631
thorax -3.41766 0.600511 2.79674
lowerneck -22.6023 -0.676144 0.0799947
upperneck 38.0862 -1.29336 3.9633
head 18.0681 0.547505 1.70328
rclavicle 6.4605e-015 -9.93923e-015
rhumerus -50.2091 -32.425 -27.8613
rradius 46.7255
rwrist -2.17458
rhand -28.543 15.6268
rfingers 7.12502
rthumb -1.91036 -14.3444
lclavicle 6.4605e-015 -9.93923e-015
lhumerus -50.602 35.0566 25.7106
lradius 32.3102
lwrist 32.9575
lhand -15.5363 52.5559
lfingers 7.12502
lthumb 10.6474 82.2661
rfemur -10.8793 -2.60539 23.5386
rtibia 20.3829
rfoot -8.9272 -15.9425
rtoes -22.3251
lfemur -19.5321 -3.40368 -14.4347
ltibia 27.7295
lfoot -19.7374 10.9114
ltoes -14.3071
137
root -23.5112 17.7422 -0.593508 -137.461 73.3543 -146.123
lowerback 7.03759 0.665088 0.0813448
upperback 0.636243 1.05574 3.00059
thorax -3.34569 0.56835 2.95445
lowerneck -22.5732 -0.608227 -0.106267
upperneck 38.1579 -1.08761 3.92423
head 18.0935 0.596131 1.76485
rclavicle -1.6201e-014 3.10104e-014
rhumerus -48.5425 -31.1601 -28.5273
rradius 49.5756
rwrist -1.47063
rhand -28.4144 16.1633
rfingers 7.12502
rthumb -1.78616 -13.809
lclavicle -1.6201e-014 3.10104e-014
lhumerus -50.7221 34.3108 25.0714
lradius 34.7927
lwrist 34.75
lhand -15.7856 52.0277
lfingers 7.12502
lthumb 10.4069 81.7501
rfemur -9.38105 -2.02572 23.6789
rtibia 19.0887
rfoot -8.68315 -17.2571
rtoes -19.6757
lfemur -19.5382 -4.3456 -14.1015
ltibia 27.8196
lfoot -19.5769 11.9815
ltoes -11.9566
138
root -23.511 17.7442 -0.587425 -136.458 73.5651 -145.178
lowerback 6.67106 0.33669 -0.273789
upperback 0.438497 0.609234 3.42975
thorax -3.33076 0.357702 3.64818
lowerneck -22.3269 -0.243551 -0.549324
upperneck 38.2816 -0.159136 3.54595
head 18.0598 0.839126 1.86573
rclavicle 4.47266e-015 -4.69132e-014
rhumerus -45.5567 -29.4955 -29.5553
rradius 51.9476
rwrist -0.917219
rhand -28.3272 16.0019
rfingers 7.12502
rthumb -1.70192 -13.9711
lclavicle 4.47266e-015 -4.69132e-014
lhumerus -52.2864 34.4798 23.4459
lradius 37.6068
lwrist 36.306
lhand -17.1257 52.8385
lfingers 7.12502
lthumb 9.11406 82.6216
rfemur -7.93823 -1.34461 23.7293
rtibia 17.6876
rfoot -9.07412 -18.3981
rtoes -13.1495
lfemur -19.6316 -4.22259 -13.9674
ltibia 27.9483
lfoot -19.6336 12.154
ltoes -11.7855
139
root -23.5107 17.744 -0.580023 -135.435 73.8612 -144.2
lowerback 6.22234 1.04144 0.338292
upperback 0.328845 1.54414 2.66396
thorax -3.21555 0.800893 2.42192
lowerneck -22.4929 -0.811798 0.440871
upperneck 38.2929 -1.53723 3.71726
head 18.1592 0.48118 1.48153
rclavicle 2.27608e-014 2.98177e-014
rhumerus -46.5867 -30.0575 -28.9723
rradius 54.5276
rwrist -1.14471
rhand -28.0555 16.1829
rfingers 7.12502
rthumb -1.43948 -13.792
lclavicle 2.27608e-014 2.98177e-014
lhumerus -49.2672 34.2513 23.7859
lradius 40.024
lwrist 35.9327
lhand -17.3799 52.7902
lfingers 7.12502
lthumb 8.86874 82.5839
rfemur -6.52584 -0.402053 23.7464
rtibia 16.2249
rfoot -8.45698 -19.0779
rtoes -10.7833
lfemur -19.7142 -3.92173 -13.9042
ltibia 28.1263
lfoot -19.7576 12.1727
ltoes -11.9081
140
root -23.5129 17.7361 -0.574515 -134.507 74.1931 -143.321
lowerback 5.87697 0.510405 -0.229701
upperback 0.189167 0.825191 3.30533
thorax -3.15489 0.460839 3.47595
lowerneck -22.3502 -0.277632 -0.556992
upperneck 38.4465 -0.20357 3.56176
head 18.162 0.82872 1.87402
rclavicle -1.3418e-014 -1.19271e-015
rhumerus -42.3401 -28.1438 -30.6178
rradius 56.2826
rwrist -2.30559
rhand -27.6835 16.4285
rfingers 7.12502
rthumb -1.08024 -13.5486
lclavicle -1.3418e-014 -1.19271e-015
lhumerus -51.7433 34.866 22.0169
lradius 43.0969
lwrist 36.371
lhand -17.8903 52.728
lfingers 7.12502
lthumb 8.3762 82.5419
rfemur -5.19344 0.556336 23.7137
rtibia 14.7307
rfoot -6.57385 -18.7249
rtoes -11.7182
lfemur -19.8103 -3.80396 -13.8938
ltibia 28.3501
lfoot -19.8931 12.3485
ltoes -11.4571
141
root -23.5182 17.7227 -0.568291 -133.72 74.5961 -142.62
lowerback 5.47315 0.725394 -0.071756
upperback 0.0311359 1.10286 3.03468
thorax -3.10017 0.592093 3.08417
lowerneck -22.2848 -0.398918 -0.532777
upperneck 38.4943 -0.503684 3.83544
head 18.1867 0.761131 1.93745
rclavicle 2.00773e-014 -1.74931e-014
rhumerus -41.0212 -27.769 -31.1742
rradius 58.1364
rwrist -3.64977
rhand -27.4026 16.1852
rfingers 7.12502
rthumb -0.808974 -13.793
lclavicle 2.00773e-014 -1.74931e-014
lhumerus -50.7421 34.931 21.9469
lradius 46.2079
lwrist 36.6248
lhand -18.8258 53.1699
lfingers 7.12502
lthumb 7.47328 83.0179
rfemur -3.97498 1.48937 23.5766
rtibia 13.1185
rfoot -4.56303 -17.8041
rtoes -13.0338
lfemur -19.9522 -3.7901 -13.9792
ltibia 28.5802
lfoot -20.0137 12.6027
ltoes -10.7716
142
root -23.5218 17.71 -0.556389 -132.98 75.023 -141.923
lowerback 5.11946 0.73889 -0.147429
upperback -0.129869 1.10877 2.97281
thorax -3.06822 0.59509 3.06514
lowerneck -22.2168 -0.378529 -0.764282
upperneck 38.5906 -0.440523 4.0269
head 18.2233 0.783466 2.08683
rclavicle -7.35503e-015 -1.27222e-014
rhumerus -38.8403 -26.9346 -32.1987
rradius 59.7617
rwrist -4.76822
rhand -27.0901 15.4973
rfingers 7.12502
rthumb -0.507147 -14.4818
lclavicle -7.35503e-015 -1.27222e-014
lhumerus -50.5398 35.4802 21.5136
lradius 49.4589
lwrist 36.9478
lhand -20.2969 53.7129
lfingers 7.12502
lthumb 6.05319 83.6065
rfemur -2.79655 2.65686 23.4462
rtibia 11.3766
rfoot -3.30582 -17.6392
rtoes -16.0313
lfemur -20.0712 -3.58407 -14.0919
ltibia 28.861
lfoot -20.1974 12.6673
ltoes -10.5831
143
root -23.5204 17.7015 -0.541993 -132.432 75.3745 -141.331
lowerback 4.79557 1.04006 0.0940838
upperback -0.244768 1.5017 2.57811
thorax -3.00897 0.780638 2.49341
lowerneck -22.3093 -0.626444 -0.503765
upperneck 38.648 -1.02791 4.25058
head 18.3101 0.631752 2.02667
rclavicle 2.21645e-014 6.36111e-015
rhumerus -37.7979 -26.7966 -32.8434
rradius 61.3646
rwrist -5.446
rhand -26.6786 14.9796
rfingers 7.12502
rthumb -0.109645 -15.0002
lclavicle 2.21645e-014 6.36111e-015
lhumerus -48.7796 35.8266 22.1956
lradius 52.8787
lwrist 37.0338
lhand -22.2997 54.2828
lfingers 7.12502
lthumb 4.11936 84.2227
rfemur -1.70863 3.12016 23.3848
rtibia 9.69554
rfoot -3.15384 -17.952
rtoes -19.1949
lfemur -19.978 -4.91388 -14.0302
ltibia 29.0469
lfoot -20.1867 13.9483
ltoes -7.47187
144
root -23.5186 17.6895 -0.528189 -132.197 75.6474 -141.006
lowerback 4.55187 0.943673 -0.011831
upperback -0.336699 1.36943 2.67976
thorax -2.96617 0.718015 2.67117
lowerneck -22.0652 -0.31153 -0.654344
upperneck 38.5306 -0.427092 4.14155
head 18.1493 0.826177 2.12013
rclavicle -2.34566e-014 1.59028e-015
rhumerus -35.2544 -25.8719 -33.9759
rradius 62.5725
rwrist -5.53956
rhand -26.3399 15.0024
rfingers 7.12502
rthumb 0.217441 -14.9772
lclavicle -2.34566e-014 1.59028e-015
lhumerus -49.0027 36.9035 21.9595
lradius 56.5184
lwrist 36.1699
lhand -23.1012 54.5298
lfingers 7.12502
lthumb 3.34541 84.4833
rfemur -0.902806 3.47036 23.2965
rtibia 8.44135
rfoot -3.73252 -19.3999
rtoes -24.612
lfemur -19.9241 -3.30686 -14.2684
ltibia 29.0826
lfoot -20.2768 12.7409
ltoes -9.89386
